#!OML:ASF F:\VICON\USERDATA\INSTALL\rory3\rory3.ASF
:FULLY-SPECIFIED
:DEGREES
672
root 1.56443 33.1642 -2.69919 -170.792 2.77825 180.667
lowerback 8.78644 -0.462233 -5.10738
upperback 0.0294417 -1.09628 -0.223587
thorax -4.81178 -0.401659 2.77821
lowerneck -18.1124 -0.0641614 -1.25789
upperneck 36.6026 6.01372 -4.77928
head 16.3346 2.74575 -0.394484
rclavicle 3.97569e-015 -3.18055e-015
rhumerus 5.69455 40.0917 -74.601
rradius 91.1066
rwrist 30.7122
rhand 11.0533 -2.05298
rfingers 7.12502
rthumb 36.1247 -28.3388
lclavicle 3.97569e-015 -3.18055e-015
lhumerus 0.68234 -19.1536 84.5484
lradius 78.3719
lwrist -40.0994
lhand -28.2507 38.0831
lfingers 7.12502
lthumb -1.628 68.0566
rfemur -32.2198 1.47877 21.1839
rtibia 40.6341
rfoot -10.8765 4.75503
rtoes 15.8549
lfemur -24.5535 3.79388 -24.0852
ltibia 28.731
lfoot -12.6963 5.16692
ltoes -6.50268
673
root 1.587 33.1552 -2.72501 -170.817 2.51588 180.671
lowerback 8.61539 -0.510484 -5.01287
upperback -0.0320964 -1.14478 -0.156843
thorax -4.7764 -0.429294 2.79851
lowerneck -18.0189 -0.109335 -1.2971
upperneck 36.7972 6.06558 -4.8028
head 16.4155 2.77879 -0.383216
rclavicle 2.78299e-015 -7.15625e-015
rhumerus 5.98972 40.5858 -74.4867
rradius 90.4298
rwrist 30.7208
rhand 11.0567 -3.11935
rfingers 7.12502
rthumb 36.1279 -29.4043
lclavicle 2.78299e-015 -7.15625e-015
lhumerus 0.4605 -19.0875 84.6933
lradius 78.2481
lwrist -39.9678
lhand -27.936 36.9557
lfingers 7.12502
lthumb -1.32408 66.9314
rfemur -31.8169 1.69209 21.3223
rtibia 40.1342
rfoot -10.6825 4.58787
rtoes 19.8625
lfemur -24.4891 3.89179 -24.0418
ltibia 28.8
lfoot -12.8803 4.92173
ltoes -6.18892
674
root 1.61005 33.1445 -2.75001 -170.842 2.31063 180.593
lowerback 8.44717 -0.524371 -5.04075
upperback -0.135713 -1.16237 -0.106411
thorax -4.78751 -0.43696 2.86715
lowerneck -17.9248 -0.172616 -1.28637
upperneck 37.0419 6.10603 -4.8581
head 16.5257 2.81353 -0.395518
rclavicle -5.86415e-015 7.95139e-015
rhumerus 5.95904 40.8717 -74.5752
rradius 89.8744
rwrist 30.8365
rhand 11.6496 -3.23481
rfingers 7.12502
rthumb 36.6892 -29.379
lclavicle -5.86415e-015 7.95139e-015
lhumerus 0.235233 -19.1003 84.7844
lradius 78.1332
lwrist -39.7312
lhand -27.7142 37.3976
lfingers 7.12502
lthumb -1.10991 67.3744
rfemur -31.4346 1.93795 21.3547
rtibia 39.776
rfoot -11.7749 3.67796
rtoes 17.5859
lfemur -24.3996 3.97678 -24.0726
ltibia 28.8347
lfoot -13.0971 4.69275
ltoes -5.86047
675
root 1.63277 33.1349 -2.77381 -170.852 2.07456 180.425
lowerback 8.19338 -0.439966 -5.0029
upperback -0.110025 -1.03445 -0.230849
thorax -4.6314 -0.379862 2.69584
lowerneck -18.1285 -0.319991 -1.07366
upperneck 37.3156 5.876 -4.84326
head 16.7154 2.75444 -0.464504
rclavicle -8.05078e-015 -2.70347e-014
rhumerus 6.01832 40.5758 -74.7439
rradius 89.1988
rwrist 31.0475
rhand 11.7974 -2.69622
rfingers 7.12502
rthumb 36.8291 -28.8047
lclavicle -8.05078e-015 -2.70347e-014
lhumerus 0.431118 -19.5758 84.6572
lradius 77.9152
lwrist -39.4021
lhand -27.7484 37.6088
lfingers 7.12502
lthumb -1.1429 67.5855
rfemur -31.069 1.95496 21.3363
rtibia 39.4772
rfoot -13.0716 2.34385
rtoes 14.7489
lfemur -24.3184 3.96038 -24.196
ltibia 28.8581
lfoot -13.2774 4.55601
ltoes -5.39751
676
root 1.65586 33.128 -2.79806 -170.905 1.86609 180.235
lowerback 7.969 -0.414056 -5.02532
upperback -0.0785098 -0.989092 -0.28757
thorax -4.47641 -0.361668 2.64009
lowerneck -18.1075 -0.416954 -1.08729
upperneck 37.4696 5.78454 -4.80696
head 16.7865 2.73276 -0.460145
rclavicle -1.00386e-014 6.36111e-015
rhumerus 6.12817 40.4713 -74.8529
rradius 88.555
rwrist 31.26
rhand 11.4528 -1.44357
rfingers 7.12502
rthumb 36.5029 -27.6349
lclavicle -1.00386e-014 6.36111e-015
lhumerus 0.485356 -19.76 84.6464
lradius 77.7832
lwrist -39.162
lhand -27.9111 37.8164
lfingers 7.12502
lthumb -1.30009 67.7922
rfemur -30.6783 2.04696 21.2642
rtibia 39.1653
rfoot -13.7064 1.82755
rtoes 16.5126
lfemur -24.2057 3.93716 -24.333
ltibia 28.9123
lfoot -13.4415 4.40893
ltoes -4.93139
677
root 1.67546 33.1226 -2.81955 -170.823 1.58272 180.152
lowerback 7.64841 -0.417151 -5.05606
upperback -0.121332 -0.978706 -0.162887
thorax -4.3391 -0.360051 2.78168
lowerneck -18.0165 -0.529553 -1.22398
upperneck 37.6177 5.77814 -4.87189
head 16.8448 2.72225 -0.461354
rclavicle -4.87022e-015 -9.14409e-015
rhumerus 6.21902 40.5604 -74.8144
rradius 87.9443
rwrist 31.4997
rhand 10.594 -0.874852
rfingers 7.12502
rthumb 35.6895 -27.2671
lclavicle -4.87022e-015 -9.14409e-015
lhumerus 0.473225 -19.7202 84.9628
lradius 77.6456
lwrist -39.0359
lhand -28.0392 37.8699
lfingers 7.12502
lthumb -1.42381 67.8449
rfemur -30.4072 2.18856 21.2729
rtibia 38.8004
rfoot -13.9243 1.90974
rtoes 19.5075
lfemur -24.2718 3.78026 -24.3534
ltibia 28.9926
lfoot -13.5711 4.33047
ltoes -4.96393
678
root 1.69434 33.1128 -2.83678 -170.612 1.20725 180.157
lowerback 7.40499 -0.547624 -4.80398
upperback -0.306777 -1.12778 -0.10462
thorax -4.38653 -0.438128 2.71472
lowerneck -18.1405 -0.557385 -1.40614
upperneck 37.9442 5.91575 -4.81053
head 17.0512 2.7762 -0.366027
rclavicle 1.00386e-014 7.15625e-015
rhumerus 6.16238 40.7629 -75.2473
rradius 87.2648
rwrist 31.8706
rhand 10.0382 -0.532833
rfingers 7.12502
rthumb 35.1626 -27.0508
lclavicle 1.00386e-014 7.15625e-015
lhumerus 0.280259 -19.5301 85.0808
lradius 77.506
lwrist -38.8854
lhand -27.7084 37.2758
lfingers 7.12502
lthumb -1.10428 67.2527
rfemur -30.2658 2.34272 21.3607
rtibia 38.3872
rfoot -14.3662 1.57995
rtoes 20.2116
lfemur -24.5109 3.48017 -24.2512
ltibia 29.0981
lfoot -13.639 4.2826
ltoes -5.36792
679
root 1.71486 33.1086 -2.85317 -170.576 0.967532 180.107
lowerback 7.32477 -0.468143 -4.62441
upperback -0.399097 -1.00944 -0.175031
thorax -4.45145 -0.382117 2.52733
lowerneck -18.3575 -0.720396 -1.43541
upperneck 38.2999 5.74498 -4.68354
head 17.2874 2.72957 -0.328317
rclavicle 3.47873e-015 3.18055e-015
rhumerus 5.92513 40.3768 -75.7905
rradius 86.5188
rwrist 32.3226
rhand 9.68653 0.0764375
rfingers 7.12502
rthumb 34.829 -26.5194
lclavicle 3.47873e-015 3.18055e-015
lhumerus 0.189989 -19.8506 85.1609
lradius 77.2969
lwrist -38.7001
lhand -27.3993 36.3225
lfingers 7.12502
lthumb -0.805787 66.3008
rfemur -29.997 2.60579 21.3863
rtibia 37.9651
rfoot -15.0331 0.698612
rtoes 19.2981
lfemur -24.5561 3.27386 -24.1986
ltibia 29.2102
lfoot -13.6781 4.30568
ltoes -5.72092
680
root 1.73555 33.107 -2.87084 -170.698 0.822981 180.031
lowerback 7.27734 -0.412554 -4.62114
upperback -0.316912 -0.926868 -0.103006
thorax -4.3441 -0.344457 2.59019
lowerneck -18.631 -0.819745 -1.65217
upperneck 38.5175 5.73086 -4.63117
head 17.472 2.69807 -0.261938
rclavicle -8.24956e-015 -2.3059e-014
rhumerus 6.01078 40.3345 -75.84
rradius 85.8909
rwrist 32.6744
rhand 8.61554 -0.149562
rfingers 7.12502
rthumb 33.8121 -26.9748
lclavicle -8.24956e-015 -2.3059e-014
lhumerus 0.231894 -19.7555 85.3934
lradius 77.1415
lwrist -38.6274
lhand -27.2726 35.4288
lfingers 7.12502
lthumb -0.683357 65.4075
rfemur -29.6147 2.88314 21.3726
rtibia 37.5763
rfoot -15.3628 0.198761
rtoes 19.5682
lfemur -24.4078 3.16009 -24.1792
ltibia 29.2915
lfoot -13.7209 4.35145
ltoes -5.66253
681
root 1.75511 33.1078 -2.8904 -170.836 0.767105 179.932
lowerback 7.27889 -0.348385 -4.58173
upperback -0.292442 -0.836486 -0.0810392
thorax -4.32667 -0.301205 2.58111
lowerneck -18.6627 -0.903531 -1.72908
upperneck 38.6824 5.71766 -4.64573
head 17.5726 2.69155 -0.252143
rclavicle 1.49089e-015 -1.82882e-014
rhumerus 5.9157 40.3494 -76.1017
rradius 85.2723
rwrist 33.0715
rhand 7.2869 -0.833921
rfingers 7.12502
rthumb 32.5487 -27.9283
lclavicle 1.49089e-015 -1.82882e-014
lhumerus 0.168727 -19.6718 85.5744
lradius 77.0934
lwrist -38.5207
lhand -26.7768 34.4517
lfingers 7.12502
lthumb -0.204489 64.4314
rfemur -29.2612 3.09833 21.3286
rtibia 37.2622
rfoot -15.3382 0.14417
rtoes 20.3959
lfemur -24.2038 3.09099 -24.2018
ltibia 29.3017
lfoot -13.7398 4.39834
ltoes -5.48176
682
root 1.77686 33.1147 -2.91269 -170.89 0.670791 179.866
lowerback 7.18684 -0.318508 -4.54281
upperback -0.312054 -0.788665 -0.0208667
thorax -4.29867 -0.279089 2.61575
lowerneck -18.8003 -0.981477 -1.98549
upperneck 38.927 5.77209 -4.56742
head 17.7407 2.69641 -0.151834
rclavicle 8.24956e-015 1.19271e-015
rhumerus 5.66038 40.3064 -76.5978
rradius 84.6007
rwrist 33.6306
rhand 6.4883 -0.803621
rfingers 7.12502
rthumb 31.7885 -28.0518
lclavicle 8.24956e-015 1.19271e-015
lhumerus 0.0301337 -19.5966 85.7386
lradius 76.9989
lwrist -38.3681
lhand -26.8159 34.2623
lfingers 7.12502
lthumb -0.242279 64.2419
rfemur -29.0018 3.29499 21.3069
rtibia 37.0039
rfoot -15.5266 -0.153491
rtoes 20.3635
lfemur -24.0794 2.94057 -24.1664
ltibia 29.2878
lfoot -13.7048 4.4462
ltoes -5.61958
683
root 1.79906 33.1202 -2.93238 -170.888 0.574638 179.716
lowerback 7.05986 -0.212682 -4.39188
upperback -0.372022 -0.637059 -0.22055
thorax -4.30505 -0.207846 2.30606
lowerneck -18.8721 -1.12246 -1.97648
upperneck 39.203 5.56592 -4.37209
head 17.8991 2.6552 -0.098291
rclavicle 4.07509e-015 9.14409e-015
rhumerus 4.98413 39.7965 -77.666
rradius 83.9
rwrist 34.3738
rhand 5.31408 -0.130059
rfingers 7.12502
rthumb 30.6695 -27.594
lclavicle 4.07509e-015 9.14409e-015
lhumerus -0.0522309 -19.925 85.6871
lradius 76.7502
lwrist -38.2111
lhand -26.8926 33.883
lfingers 7.12502
lthumb -0.316329 63.8625
rfemur -28.8246 3.49803 21.1825
rtibia 36.7935
rfoot -15.746 -0.579928
rtoes 20.0317
lfemur -24.0355 2.79683 -24.2144
ltibia 29.2867
lfoot -13.6198 4.40645
ltoes -4.97706
